<svg width="121" height="27" viewBox="0 0 121 27" fill="none" xmlns="http://www.w3.org/2000/svg">
<path d="M44.728 7.768V19H41.992V7.768H44.728ZM54.7908 13.24C55.4414 13.3787 55.9641 13.704 56.3588 14.216C56.7534 14.7173 56.9508 15.2933 56.9508 15.944C56.9508 16.8827 56.6201 17.6293 55.9587 18.184C55.3081 18.728 54.3961 19 53.2228 19H47.9907V7.768H53.0468C54.1881 7.768 55.0787 8.02933 55.7188 8.552C56.3694 9.07467 56.6947 9.784 56.6947 10.68C56.6947 11.3413 56.5187 11.8907 56.1667 12.328C55.8254 12.7653 55.3667 13.0693 54.7908 13.24ZM50.7267 12.312H52.5188C52.9668 12.312 53.3081 12.216 53.5427 12.024C53.7881 11.8213 53.9107 11.528 53.9107 11.144C53.9107 10.76 53.7881 10.4667 53.5427 10.264C53.3081 10.0613 52.9668 9.96 52.5188 9.96H50.7267V12.312ZM52.7428 16.792C53.2014 16.792 53.5534 16.6907 53.7987 16.488C54.0548 16.2747 54.1828 15.9707 54.1828 15.576C54.1828 15.1813 54.0494 14.872 53.7828 14.648C53.5267 14.424 53.1694 14.312 52.7108 14.312H50.7267V16.792H52.7428ZM62.5536 16.888H66.1376V19H59.8176V7.768H62.5536V16.888ZM71.4586 7.768V19H68.7226V7.768H71.4586ZM77.6334 16.76H82.4654V19H74.5294V16.92L79.3294 10.008H74.5294V7.768H82.4654V9.848L77.6334 16.76ZM92.9393 7.768V19H90.2033V7.768H92.9393ZM106.25 19H103.514L98.938 12.072V19H96.202V7.768H98.938L103.514 14.728V7.768H106.25V19ZM109.049 13.368C109.049 12.2587 109.289 11.272 109.769 10.408C110.249 9.53333 110.916 8.856 111.769 8.376C112.633 7.88533 113.609 7.64 114.697 7.64C116.031 7.64 117.172 7.992 118.121 8.696C119.071 9.4 119.705 10.36 120.025 11.576H117.017C116.793 11.1067 116.473 10.7493 116.057 10.504C115.652 10.2587 115.188 10.136 114.665 10.136C113.823 10.136 113.14 10.4293 112.617 11.016C112.095 11.6027 111.833 12.3867 111.833 13.368C111.833 14.3493 112.095 15.1333 112.617 15.72C113.14 16.3067 113.823 16.6 114.665 16.6C115.188 16.6 115.652 16.4773 116.057 16.232C116.473 15.9867 116.793 15.6293 117.017 15.16H120.025C119.705 16.376 119.071 17.336 118.121 18.04C117.172 18.7333 116.031 19.08 114.697 19.08C113.609 19.08 112.633 18.84 111.769 18.36C110.916 17.8693 110.249 17.192 109.769 16.328C109.289 15.464 109.049 14.4773 109.049 13.368Z" fill="white"/>
<path fill-rule="evenodd" clip-rule="evenodd" d="M9.80071 0.623353C12.999 -0.207784 16.3567 -0.207784 19.555 0.623353L20.0872 0.761675C25.6997 2.22017 29.4547 7.49784 28.9928 13.2783L28.8965 14.4828C28.5973 18.2273 26.2206 21.4866 22.7468 22.9162C22.3387 23.0841 21.9958 23.3795 21.7692 23.7582L20.9647 25.103C20.6194 25.6801 20.0718 26.1081 19.4285 26.3038L19.3915 26.315C19.2693 26.3522 19.1417 26.3684 19.014 26.3628C18.4062 26.3364 17.8905 25.908 17.7532 25.3153L17.726 25.1981C17.6067 24.6831 16.8761 24.6754 16.746 25.1878L16.7244 25.2727C16.5644 25.903 16.0338 26.3703 15.3883 26.4495L14.9537 26.5028C14.8043 26.5212 14.6532 26.5212 14.5037 26.5028L14.02 26.4435C13.4042 26.3679 12.8979 25.922 12.7452 25.3207L12.7148 25.2011C12.5907 24.7123 11.8901 24.7305 11.7916 25.2251L11.7759 25.3035C11.6572 25.8992 11.1469 26.3367 10.5401 26.3631C10.4158 26.3685 10.2916 26.3527 10.1726 26.3165L10.1235 26.3016C9.48319 26.1068 8.93391 25.6889 8.5754 25.1237L7.71572 23.7684C7.47149 23.3833 7.10793 23.0888 6.68058 22.9299C2.85868 21.5084 0.254222 17.9429 0.0624803 13.8698L0.0131487 12.8218C-0.248521 7.26319 3.42015 2.28146 8.80606 0.881831L9.80071 0.623353ZM7.34714 14.5074C9.50155 14.5074 11.2481 12.7609 11.2481 10.6064C11.2481 8.45203 9.50155 6.70553 7.34714 6.70553C5.19272 6.70553 3.44622 8.45203 3.44622 10.6064C3.44622 12.7609 5.19272 14.5074 7.34714 14.5074ZM22.0086 14.5074C24.163 14.5074 25.9095 12.7609 25.9095 10.6064C25.9095 8.45203 24.163 6.70553 22.0086 6.70553C19.8541 6.70553 18.1076 8.45203 18.1076 10.6064C18.1076 12.7609 19.8541 14.5074 22.0086 14.5074Z" fill="white"/>
</svg>
